<svg xmlns="http://www.w3.org/2000/svg" width="40" height="40"><g transform="translate(-1005 -588)"><circle cx="20" cy="20" r="20" transform="translate(1005 588)" fill="#ef633e" opacity=".1"/><path d="M1028 617h-6a6.007 6.007 0 01-6-6v-6a6.007 6.007 0 016-6h6a6.006 6.006 0 016 6v6a6.007 6.007 0 01-6 6zm-3-13.5a4.5 4.5 0 00-4.5 4.5 4.5 4.5 0 004.5 4.5 4.5 4.5 0 004.5-4.5 4.5 4.5 0 00-4.5-4.5zm4.64-1.255a1.157 1.157 0 00-1.156 1.156 1.157 1.157 0 001.156 1.156 1.158 1.158 0 001.156-1.156 1.157 1.157 0 00-1.156-1.153zm-4.64 8.5a2.751 2.751 0 01-2.748-2.748 2.751 2.751 0 012.748-2.749 2.752 2.752 0 012.749 2.749 2.751 2.751 0 01-2.749 2.751z" fill="#131321"/></g></svg>